# xmcd
#
# Track frame offsets:
#	150
#	13772
#	24560
#	33137
#	46512
#	57105
#	69220
#	82445
#	95515
#	113782
#	126800
#	137385
#	150642
#	162857
#	174962
#
# Disc length: 2536 seconds
#
# Revision: 1
# Processed by: cddbd v1.5.1PL0 Copyright (c) Steve Scherf et al.
# Submitted via: CDex 1.50Beta5
#
DISCID=b009e60f
DTITLE=ザ・ピーナッツ - ザ・ピーナッツ全曲集Vol,1
DYEAR=1900
DGENRE=Pop
TTITLE0=可愛い花
TTITLE1=情熱の花
TTITLE2=悲しき16才
TTITLE3=心の窓にともし灯を
TTITLE4=月影のナポリ
TTITLE5=ルナ・ナポリターナ
TTITLE6=イエロー・バード
TTITLE7=ふりむかないで
TTITLE8=私と私
TTITLE9=手編みも靴下
TTITLE10=レモンのキッス
TTITLE11=若い季節
TTITLE12=恋のバカンス
TTITLE13=ジューン・ブライド
TTITLE14=ウナ・セラ・ディ東京
EXTD=
EXTT0=
EXTT1=
EXTT2=
EXTT3=
EXTT4=
EXTT5=
EXTT6=
EXTT7=
EXTT8=
EXTT9=
EXTT10=
EXTT11=
EXTT12=
EXTT13=
EXTT14=
PLAYORDER=
